<?xml version="1.0" encoding="utf-8"?>
<!-- Generator: Adobe Illustrator 21.1.0, SVG Export Plug-In . SVG Version: 6.00 Build 0)  -->
<svg version="1.1" id="Capa_1" xmlns="http://www.w3.org/2000/svg" xmlns:xlink="http://www.w3.org/1999/xlink" x="0px" y="0px"
	 viewBox="0 0 512 512" style="enable-background:new 0 0 512 512;" xml:space="preserve">
<style type="text/css">
	.st0{fill:#A67E5F;}
</style>
<g>
	<g id="Down">
		<g>
			<path class="st0" d="M256,512c141.4,0,256-114.6,256-256S397.4,0,256,0S0,114.6,0,256S114.6,512,256,512z M256,48
				c114.7,0,208,93.3,208,208s-93.3,208-208,208S48,370.7,48,256S141.3,48,256,48z M168,320c7,0,13.2-3,17.6-7.8h0.1l70.3-76.7
				l70.3,76.7h0.1c4.4,4.8,10.6,7.8,17.6,7.8c13.2,0,24-10.8,24-24c0-6.3-2.4-11.9-6.4-16.2h0.1l-88-96c-4.6-4.9-11-7.8-17.7-7.8
				c-6.7,0-13.1,2.8-17.7,7.8l-88,96h0.1c-3.9,4.3-6.4,9.9-6.4,16.2C144,309.2,154.8,320,168,320z"/>
		</g>
	</g>
</g>
</svg>
