<?xml version="1.0" encoding="utf-8"?>
<!-- Generator: Adobe Illustrator 21.1.0, SVG Export Plug-In . SVG Version: 6.00 Build 0)  -->
<svg version="1.1" id="Capa_1" xmlns="http://www.w3.org/2000/svg" xmlns:xlink="http://www.w3.org/1999/xlink" x="0px" y="0px"
	 viewBox="0 0 512 512" style="enable-background:new 0 0 512 512;" xml:space="preserve">
<style type="text/css">
	.st0{fill:#A76700;}
</style>
<g>
	<path class="st0" d="M462.5,24.8h-413C22.3,24.8,0,47.1,0,74.3s22.3,49.5,49.5,49.5h412.9c27.3,0,49.5-22.3,49.5-49.5
		S489.7,24.8,462.5,24.8z"/>
	<path class="st0" d="M462.5,206.5h-413C22.3,206.5,0,228.7,0,256s22.3,49.5,49.5,49.5h412.9c27.3,0,49.5-22.3,49.5-49.5
		C512,228.7,489.7,206.5,462.5,206.5z"/>
	<path class="st0" d="M462.5,388.1h-413C22.3,388.1,0,410.4,0,437.7c0,27.3,22.3,49.5,49.5,49.5h412.9c27.3,0,49.5-22.3,49.5-49.5
		C512,410.4,489.7,388.1,462.5,388.1z"/>
</g>
</svg>
